<svg width="100%" height="100%" viewBox="0 0 24 24" fill="none" xmlns="http://www.w3.org/2000/svg"><path d="M11.276 3.63H12l-2.186 6.512h4.353l-1.941 8.77a1.86 1.86 0 01-1.816 1.459h-4.98a1.86 1.86 0 01-1.817-1.46l-1.844-8.77h5.026l2.826-5.5a1.86 1.86 0 011.654-1.01z" fill="currentColor"></path><path opacity=".4" d="M5.309 20.363c.048.004.097.006.147.006h13.13a1.86 1.86 0 001.818-1.469l1.826-8.76h-5.028l-2.824-5.5a1.86 1.86 0 00-1.654-1.01H12l-.625 1.861h1.248l1.56 4.648h-.015l-1.941 8.77a1.86 1.86 0 01-1.816 1.458H5.43c-.041 0-.082-.001-.122-.004z" fill="currentColor"></path></svg>